<?xml version="1.0" standalone="no"?>
<!DOCTYPE svg PUBLIC "-//W3C//DTD SVG 20010904//EN"
 "http://www.w3.org/TR/2001/REC-SVG-20010904/DTD/svg10.dtd">
<svg version="1.0" xmlns="http://www.w3.org/2000/svg"
 width="300.000000pt" height="300.000000pt" viewBox="0 0 300.000000 300.000000"
 preserveAspectRatio="xMidYMid meet">
<metadata>
Created by potrace 1.10, written by Peter Selinger 2001-2011
</metadata>
<g transform="translate(0.000000,300.000000) scale(0.100000,-0.100000)"
fill="#ffff00" stroke="none">
<path d="M277 2734 c-7 -7 3 -2076 10 -2083 2 -3 2 462 1 1031 -3 912 -1 1037
12 1047 13 9 13 10 -1 10 -9 1 -19 -2 -22 -5z"/>
<path d="M662 2725 c6 -7 1830 -7 1836 0 3 3 -410 5 -918 5 -508 0 -921 -2
-918 -5z"/>
<path d="M2682 2723 c15 -4 15 -8 5 -26 -7 -12 -16 -25 -21 -29 -9 -6 -9 -49
-1 -148 5 -57 -5 -102 -21 -96 -8 3 -14 1 -14 -4 0 -11 -49 -13 -74 -4 -27 11
-17 20 17 16 24 -3 38 2 52 18 16 17 17 23 6 30 -8 4 -20 6 -27 3 -8 -3 -12 3
-11 15 1 13 6 18 16 14 10 -4 12 -2 5 9 -14 23 -14 68 1 62 17 -6 37 30 29 51
-8 20 -18 20 -34 1 -11 -13 -10 -14 4 -9 9 3 16 1 16 -5 0 -17 -28 -25 -44
-12 -7 6 -16 8 -19 5 -3 -3 -23 -6 -44 -6 -21 0 -44 -5 -52 -11 -11 -10 -13
-8 -7 11 5 16 3 24 -9 28 -23 9 -38 -10 -37 -46 0 -18 -5 -33 -14 -37 -7 -3
-11 -9 -8 -15 4 -5 11 -5 18 1 7 6 16 8 19 4 4 -3 7 0 7 7 0 9 7 7 22 -6 17
-15 20 -15 9 -2 -11 15 -10 18 12 24 18 4 24 11 20 22 -5 10 -3 13 6 8 7 -5
10 -14 7 -22 -3 -8 -1 -14 5 -14 5 0 12 7 15 15 4 8 10 12 15 9 6 -3 16 0 24
6 12 10 15 9 15 -4 0 -10 -9 -16 -25 -16 -17 0 -23 -4 -19 -15 5 -12 0 -12
-27 -5 -36 11 -54 6 -20 -5 12 -3 21 -15 21 -25 0 -23 40 -52 75 -54 14 0 25
-4 25 -7 0 -12 -62 -19 -78 -8 -14 8 -12 9 8 4 22 -5 23 -4 7 5 -13 8 -22 9
-31 1 -13 -11 -26 -5 -26 11 0 5 4 7 9 4 5 -4 4 5 -2 18 -11 22 -17 24 -78 22
-37 0 -65 -4 -63 -7 1 -3 -31 -6 -73 -7 -91 -2 -111 -12 -27 -13 32 0 67 -2
76 -4 10 -2 20 1 23 6 3 4 17 4 31 -1 38 -15 67 -13 61 4 -4 10 0 14 14 13 20
-1 27 -23 9 -29 -9 -3 -16 -1158 -9 -1373 l3 -70 6 75 6 75 2 -86 c1 -47 -3
-90 -8 -95 -15 -15 -24 -430 -10 -439 6 -4 11 20 12 67 1 72 1 72 8 23 5 -30
6 -8 3 55 -13 291 -14 280 7 272 21 -8 23 -29 3 -24 -10 2 -13 -15 -12 -70 1
-67 2 -69 9 -28 4 24 5 53 2 62 -3 13 1 18 15 18 14 0 19 8 21 31 2 27 0 31
-17 26 -15 -4 -18 1 -17 23 0 18 5 26 13 23 7 -3 11 -9 8 -13 -3 -5 -1 -11 5
-15 5 -3 10 3 10 14 0 11 -8 25 -18 30 -14 7 -19 25 -22 83 -2 40 -3 89 -2
108 1 26 -2 31 -10 20 -8 -12 -8 -10 -2 5 4 11 9 37 12 57 2 21 14 46 28 59
31 29 43 17 13 -13 -29 -28 -31 -38 -23 -163 5 -98 6 -101 37 -123 24 -17 27
-22 12 -19 -11 1 -26 6 -33 11 -7 4 -16 6 -19 3 -2 -3 8 -12 24 -20 25 -13 32
-13 57 0 22 12 27 12 24 1 -3 -7 -14 -14 -26 -16 -27 -4 -29 -22 -3 -22 18 0
51 34 51 52 0 5 -14 8 -31 8 -25 0 -29 3 -20 14 6 7 12 31 13 54 1 30 6 42 20
45 10 3 21 0 25 -6 14 -23 20 -116 10 -159 -3 -16 -1 -28 4 -28 5 0 9 -4 9
-10 0 -5 -10 -10 -22 -10 -20 0 -20 -1 -5 -13 16 -11 17 -29 14 -157 -2 -80 0
-161 5 -180 4 -21 3 -51 -4 -72 -11 -36 -13 -38 -54 -38 -52 0 -74 8 -68 24 3
7 -6 20 -18 28 -23 15 -24 15 -26 -11 -1 -18 1 -22 7 -12 5 8 14 10 21 6 9 -6
5 -12 -14 -22 -27 -14 -33 -28 -17 -37 5 -3 11 3 14 14 8 31 21 24 41 -24 15
-35 21 -42 31 -33 10 10 10 13 -4 19 -14 6 -14 7 2 7 9 1 17 5 17 11 0 5 -6 7
-14 4 -8 -3 -17 -1 -21 5 -4 7 9 11 39 11 24 0 52 3 62 7 12 4 15 2 12 -8 -3
-8 -12 -13 -22 -11 -9 2 -16 -2 -16 -8 0 -6 5 -8 10 -5 6 3 12 0 15 -7 8 -25
10 -188 2 -188 -5 0 -7 10 -5 22 2 11 -3 23 -10 25 -7 3 -10 -1 -6 -11 4 -11
1 -16 -10 -16 -9 0 -16 8 -16 20 0 23 -13 26 -32 6 -24 -23 -57 -29 -74 -12
-20 20 -68 22 -61 2 5 -11 -6 -13 -56 -9 -71 5 -107 19 -107 42 -1 13 -4 12
-16 -4 -8 -11 -13 -24 -10 -30 2 -6 -10 -12 -29 -13 -20 -2 -35 3 -38 11 -7
19 -47 29 -47 12 0 -31 30 -38 175 -39 80 -1 145 3 145 7 0 5 10 5 23 1 12 -4
27 -7 34 -7 7 0 10 -4 7 -9 -10 -15 13 -8 36 12 13 11 26 18 29 15 3 -4 -1
-10 -9 -16 -11 -7 -8 -9 15 -9 17 0 50 -3 75 -6 37 -6 43 -4 33 7 -8 10 -11
74 -11 201 0 102 -3 192 -7 198 -5 7 -4 11 1 7 6 -3 8 88 6 226 -2 128 -3 243
-2 257 0 14 2 93 3 176 2 119 -1 150 -11 147 -8 -4 -10 0 -6 11 3 9 10 13 16
10 11 -7 5 427 -6 445 -4 6 -3 11 2 11 5 0 9 145 9 348 -1 331 4 393 24 361 6
-10 9 -8 9 9 0 18 -5 22 -32 21 -18 -1 -25 -3 -16 -6z m-226 -109 c-3 -9 -6
-22 -6 -30 0 -8 -4 -14 -10 -14 -11 0 -14 43 -3 53 12 13 25 7 19 -9z m112
-87 c-17 -6 -18 -10 -8 -22 10 -12 9 -15 -4 -15 -9 0 -16 2 -16 4 0 2 -3 11
-6 20 -4 11 -1 16 10 16 9 0 16 7 16 15 0 13 2 14 14 3 12 -11 11 -14 -6 -21z
m-76 -97 c1 -19 4 -26 9 -19 4 7 5 17 3 21 -3 4 1 8 9 8 10 0 13 -7 10 -19 -5
-18 0 -19 76 -16 45 1 81 -1 81 -6 0 -5 -6 -9 -13 -9 -9 0 -11 -21 -8 -82 l3
-83 -21 19 c-20 18 -22 18 -39 3 -25 -23 -42 -21 -42 3 0 11 5 20 11 20 6 0 9
-7 5 -15 -3 -8 -2 -15 3 -15 15 0 22 63 9 72 -13 8 -10 9 27 12 14 1 20 9 22
29 l2 29 -18 -21 c-10 -12 -25 -21 -33 -21 -8 0 -20 -6 -27 -12 -11 -10 -13
-10 -7 0 10 17 -6 15 -30 -4 -16 -13 -16 -15 -1 -10 24 8 47 -3 40 -20 -8 -20
-26 -17 -19 4 5 14 4 14 -9 -2 -8 -11 -15 -27 -14 -35 0 -11 2 -12 6 -3 5 13
24 17 22 5 -4 -23 3 -43 14 -43 9 0 11 -12 8 -42 -4 -38 -5 -40 -12 -18 -6 20
-7 17 -9 -20 -1 -35 -3 -40 -10 -25 -12 27 -13 104 -1 86 5 -7 11 -9 14 -4 3
4 -1 17 -9 28 -24 32 -36 1 -29 -75 4 -47 3 -62 -5 -54 -12 12 -21 123 -9 129
3 3 5 39 4 80 -3 73 4 92 23 59 8 -14 10 -12 14 10 3 14 1 26 -3 26 -5 0 -9
-4 -9 -10 0 -5 -9 -6 -22 -1 -17 6 -23 17 -26 47 -1 21 0 35 3 32 4 -3 7 -20
7 -38z m-2 -145 l-7 -60 -1 80 c0 47 2 72 7 60 4 -11 4 -47 1 -80z m158 -75
c10 7 20 -190 11 -222 -6 -21 -4 -28 9 -31 13 -3 12 -6 -7 -14 -16 -6 -20 -12
-13 -17 16 -9 16 -142 1 -152 -7 -4 -16 1 -21 10 -5 9 -15 16 -23 16 -9 0 -12
8 -9 24 2 14 0 28 -6 31 -6 4 -8 11 -4 16 4 6 11 5 20 -2 11 -9 18 -9 26 -1
14 14 3 42 -17 42 -9 0 -13 -4 -10 -10 3 -5 -1 -10 -9 -10 -9 0 -16 5 -16 11
0 8 -5 7 -15 -1 -19 -16 -32 -5 -17 13 7 8 24 12 43 9 21 -3 30 -1 25 6 -3 6
-22 9 -40 7 -23 -2 -33 1 -30 9 3 7 21 10 49 8 25 -2 45 0 45 5 0 5 -17 7 -37
5 -47 -3 -74 11 -55 30 9 9 12 9 12 0 0 -18 41 -15 62 5 25 22 23 33 -8 33
-21 0 -25 3 -19 18 4 9 8 34 7 55 0 29 4 37 19 37 13 0 17 -5 12 -17 -3 -10
-2 -14 2 -10 11 10 7 79 -5 91 -4 4 -16 3 -27 -3 -17 -10 -16 -10 5 -11 28 0
30 -30 2 -37 -11 -3 -20 -12 -20 -19 0 -8 -5 -14 -10 -14 -6 0 -8 10 -5 23 4
13 7 30 9 38 1 8 9 24 16 37 14 21 16 21 28 5 7 -10 16 -16 20 -13z m-157
-168 c2 -47 5 -60 14 -52 15 12 25 3 18 -16 -3 -8 0 -14 6 -14 6 0 8 -7 4 -15
-6 -18 -27 -15 -29 3 -3 25 -5 27 -14 12 -7 -10 -10 11 -10 69 0 96 8 106 11
13z m77 37 c-11 -6 -15 -16 -11 -27 6 -15 5 -15 -10 -3 -21 17 -23 45 -2 37
10 -3 15 1 15 11 0 14 2 15 13 4 10 -10 9 -14 -5 -22z m-48 -20 c0 -11 4 -18
9 -15 5 3 14 0 20 -8 9 -10 7 -17 -6 -27 -9 -8 -14 -9 -10 -3 4 7 0 15 -9 18
-8 3 -12 2 -9 -4 3 -6 2 -10 -2 -10 -5 0 -9 16 -10 35 -1 19 3 35 8 35 5 0 9
-9 9 -21z m90 -53 c-6 -8 -19 -12 -27 -9 -14 6 -14 8 3 14 30 12 37 10 24 -5z
m-119 -147 c0 -40 -3 -75 -6 -77 -3 -3 -5 32 -5 78 0 46 3 81 6 77 3 -3 6 -38
5 -78z m35 45 c-3 -7 4 -16 15 -19 10 -4 17 -10 14 -15 -10 -16 6 -39 23 -33
13 5 14 3 6 -6 -9 -10 -17 -10 -32 -2 -23 12 -32 6 -32 -22 0 -11 -3 -17 -7
-13 -4 4 -8 36 -9 71 -1 51 1 62 13 58 8 -3 12 -12 9 -19z m55 -124 c-6 -5 -7
-7 -10 -72 -3 -37 -4 -40 -11 -18 -8 24 -8 23 -9 -8 -1 -18 3 -31 8 -28 5 3
11 -1 15 -9 3 -8 2 -15 -2 -15 -20 1 -32 21 -38 62 -5 36 -3 51 10 63 9 9 16
25 16 36 0 16 2 18 14 7 8 -7 11 -15 7 -18z m49 -21 c0 -5 -7 -9 -15 -9 -9 0
-15 9 -15 21 0 18 2 19 15 9 8 -7 15 -16 15 -21z m-87 -176 c14 -14 21 -15 35
-6 9 6 16 16 15 22 -2 6 0 11 5 11 4 0 7 11 7 25 0 14 -6 25 -12 25 -8 0 -13
15 -13 40 0 36 3 40 25 40 14 0 25 -6 25 -12 0 -18 -15 -40 -26 -38 -5 1 -10
-3 -12 -9 -3 -8 4 -8 21 -2 14 5 27 7 30 5 3 -3 2 11 -3 30 -4 20 -4 38 0 41
15 9 20 -11 20 -82 0 -37 1 -77 2 -88 3 -42 -2 -75 -13 -75 -6 0 -8 7 -5 16 3
9 2 12 -5 9 -6 -4 -8 -13 -5 -21 4 -10 -4 -14 -29 -14 -24 0 -35 -5 -35 -15 0
-8 -4 -15 -10 -15 -5 0 -10 -10 -9 -22 0 -13 3 -17 6 -10 2 6 11 12 20 12 10
0 12 6 8 20 -5 17 -2 20 24 20 16 0 36 3 45 6 9 4 16 1 16 -6 0 -6 -9 -14 -20
-17 -19 -5 -19 -7 -4 -18 13 -9 16 -26 14 -81 -2 -38 -2 -93 -1 -122 1 -36 -2
-52 -8 -47 -6 3 -11 19 -11 36 0 24 -4 29 -24 29 -20 0 -23 4 -19 21 6 21 7
21 19 4 17 -23 25 -17 18 12 -4 13 -11 20 -20 16 -13 -5 -19 8 -15 31 1 4 -4
14 -10 22 -16 20 -5 28 20 14 20 -10 22 -9 19 23 -1 24 -6 33 -15 30 -11 -4
-11 -8 -2 -20 11 -12 6 -13 -28 -9 -32 4 -46 0 -63 -16 -20 -19 -22 -19 -18
-3 1 10 7 17 12 16 16 -5 26 23 27 74 1 40 3 45 9 25 6 -19 8 -20 9 -6 1 12 6
16 16 12 21 -8 73 39 59 54 -8 8 -19 8 -40 -1 -16 -7 -33 -11 -37 -10 -5 1 -6
-3 -2 -8 4 -7 14 -6 30 1 27 12 48 2 25 -12 -15 -9 -39 -8 -81 4 -25 7 -26 12
-27 69 -1 34 -6 77 -11 96 -8 24 -7 39 2 55 10 18 13 8 22 -71 7 -65 15 -98
28 -110z m-39 -47 c8 3 17 1 21 -5 3 -6 0 -11 -7 -11 -9 0 -9 -3 -2 -8 15 -10
13 -80 -3 -86 -7 -3 -14 0 -15 7 -1 7 -4 -19 -8 -58 l-6 -70 -2 85 c-1 58 1
80 8 70 7 -11 10 -6 9 20 0 29 -2 31 -9 15 -5 -13 -8 14 -7 75 1 77 2 82 4 28
3 -51 7 -66 17 -62z m53 65 c3 -20 1 -22 -12 -11 -18 15 -20 43 -3 38 6 -2 13
-15 15 -27z m21 -238 c2 -7 -1 -13 -8 -13 -6 0 -8 5 -4 12 4 7 3 8 -4 4 -7 -4
-12 -22 -12 -39 -1 -27 -2 -29 -11 -14 -15 26 -3 69 18 65 9 -2 18 -9 21 -15z
m-2 -89 c-3 -9 -6 -27 -6 -40 0 -14 -4 -22 -10 -19 -6 4 -10 -5 -10 -20 0 -15
-4 -24 -10 -20 -5 3 -10 30 -9 58 0 29 3 46 6 40 2 -7 9 -13 15 -13 6 0 8 7 4
15 -3 9 0 15 10 15 11 0 14 -6 10 -16z m48 -23 c9 -14 -4 -41 -20 -41 -8 0
-14 -8 -14 -17 0 -13 -2 -15 -8 -5 -15 22 -2 72 19 72 10 0 20 -4 23 -9z m-57
-109 c-8 -10 -12 -24 -9 -32 4 -13 3 -13 -11 -1 -21 17 -23 45 -2 37 9 -3 15
0 15 10 0 8 5 12 11 9 7 -5 6 -12 -4 -23z"/>
<path d="M2554 2368 c1 -13 6 -22 9 -20 4 1 10 2 13 2 4 0 0 8 -7 17 -12 15
-12 16 4 10 9 -3 17 -2 17 3 0 6 -9 10 -20 10 -15 0 -19 -6 -16 -22z"/>
<path d="M314 2701 c4 -6 8 -95 7 -197 0 -129 3 -183 10 -178 8 4 8 1 0 -14
-6 -11 -10 -51 -10 -88 0 -38 -3 -82 -7 -98 -4 -17 -3 -27 2 -23 10 6 9 -777
-1 -792 -3 -5 -1 -12 5 -16 5 -3 10 -26 10 -51 0 -28 -4 -43 -10 -39 -11 7
-13 -59 -4 -117 4 -24 11 -35 18 -31 6 4 5 -1 -3 -10 -9 -11 -12 -30 -8 -55 4
-20 2 -44 -3 -51 -11 -18 6 -54 21 -45 6 3 5 -3 -3 -15 -7 -12 -15 -21 -18
-21 -4 0 -7 -19 -8 -43 -1 -29 1 -36 7 -23 9 24 16 12 19 -34 l2 -35 -14 25
c-15 24 -15 22 -15 -40 1 -47 3 -58 9 -40 8 24 8 24 9 -7 1 -17 -3 -35 -9 -38
-5 -3 -10 -11 -10 -16 0 -6 5 -7 10 -4 6 3 11 0 11 -7 2 -24 -3 -43 -13 -49
-6 -4 -6 -9 -1 -12 4 -3 8 -28 7 -56 -1 -33 2 -49 9 -44 6 4 7 1 1 -8 -5 -8
-9 -18 -9 -24 -1 -5 -5 -18 -10 -29 -5 -12 -4 -21 5 -26 8 -5 9 -9 1 -14 -6
-4 -11 -16 -11 -27 0 -11 -4 -17 -10 -14 -5 3 -10 -1 -10 -9 0 -13 5 -14 28
-4 18 7 171 10 488 9 412 -2 462 0 468 14 7 19 -15 30 -44 22 -11 -3 -18 -2
-15 3 3 4 -2 11 -11 14 -27 11 -37 7 -24 -9 8 -9 8 -15 2 -15 -6 0 -15 12 -21
28 -8 20 -10 21 -7 4 5 -25 -11 -29 -28 -6 -9 11 -18 13 -35 6 -17 -6 -21 -11
-12 -16 6 -4 18 -2 26 4 12 10 15 9 15 -3 0 -22 -27 -33 -80 -34 -37 -1 -39 0
-10 4 40 5 66 23 33 23 -12 0 -25 4 -28 10 -7 12 -88 14 -99 2 -10 -9 -79 -10
-87 0 -3 4 -17 9 -32 10 -15 1 -27 6 -27 10 0 4 -7 8 -15 8 -14 0 -17 -6 -14
-27 0 -4 -10 -11 -22 -15 -17 -6 -25 -5 -31 7 -12 20 -42 20 -34 -1 3 -9 6
-18 6 -20 0 -2 15 -4 33 -5 17 0 26 -3 19 -6 -7 -3 -28 -2 -45 1 -30 6 -32 9
-32 46 0 22 -3 40 -8 40 -5 0 -7 -14 -5 -31 4 -26 2 -30 -14 -26 -10 3 -18 0
-18 -7 0 -6 -15 -13 -32 -14 l-33 -2 34 20 c18 12 31 23 29 26 -9 8 -68 -8
-62 -17 3 -5 -2 -9 -10 -9 -8 0 -17 4 -21 10 -7 12 -145 4 -159 -10 -10 -10
15 -13 124 -12 l55 1 -55 -9 c-51 -9 -97 -6 -145 7 -19 6 -19 6 1 14 17 6 20
14 16 38 -3 20 0 31 8 31 7 0 10 8 7 20 -3 11 -1 20 4 20 5 0 9 -6 9 -12 0
-10 2 -10 8 -1 4 6 20 17 36 23 18 7 26 15 22 25 -3 9 3 19 15 26 19 10 20 9
10 -10 -10 -18 -7 -22 24 -35 19 -8 35 -20 35 -26 0 -7 -7 -7 -23 1 -20 11
-21 11 -8 -4 8 -10 9 -17 3 -17 -6 0 -14 5 -17 10 -4 6 -11 8 -16 4 -5 -3 -16
0 -24 6 -11 9 -20 6 -40 -14 -25 -25 -26 -58 -2 -38 7 6 41 12 75 16 52 4 63
3 59 -9 -8 -20 24 -28 41 -11 14 13 13 14 -8 9 -19 -5 -21 -3 -16 15 4 11 2
23 -4 27 -5 3 -10 11 -10 17 0 7 6 6 15 -2 8 -7 15 -8 15 -2 0 17 -27 35 -32
21 -3 -9 -12 -7 -33 4 -17 9 -24 16 -18 17 8 0 11 11 9 30 -2 18 3 35 11 42
12 9 14 9 13 -3 -5 -34 1 -59 15 -59 19 0 47 -43 43 -67 -2 -15 4 -18 38 -19
28 -1 48 -8 63 -23 28 -28 61 -29 54 -1 -4 15 0 20 15 20 11 0 25 7 32 15 7 9
20 13 28 10 8 -3 20 -1 26 4 6 5 22 11 36 13 l25 4 -28 12 c-63 26 -119 12
-146 -36 -5 -9 -13 -14 -17 -10 -4 4 1 19 10 34 10 14 16 28 13 30 -2 3 -12
-8 -22 -22 -14 -22 -15 -31 -6 -47 18 -28 4 -34 -22 -9 -19 19 -20 24 -7 32 8
5 11 10 7 10 -4 0 2 10 13 23 23 24 38 26 223 27 106 1 125 -5 152 -47 l19
-28 -33 28 c-48 40 -111 31 -69 -11 7 -7 10 -12 8 -13 -3 0 -13 -2 -22 -4 -11
-2 -15 2 -11 11 3 8 -1 14 -11 14 -10 0 -13 -6 -10 -15 4 -10 0 -15 -11 -15
-9 0 -14 4 -11 8 7 11 -56 2 -71 -10 -9 -7 -17 -7 -27 1 -10 9 -16 7 -27 -5
-11 -13 -11 -15 2 -14 33 5 59 -1 59 -14 0 -15 35 -27 56 -19 8 3 14 13 13 22
0 10 -2 11 -6 4 -7 -19 -53 -16 -53 3 0 13 10 15 53 13 28 -2 58 -7 65 -12 8
-7 12 -4 12 8 0 15 3 15 15 5 12 -10 19 -10 27 -2 17 17 31 14 24 -5 -8 -19
10 -34 31 -26 22 9 15 22 -9 15 -22 -5 -22 -5 -5 22 10 14 15 31 12 36 -3 6 3
10 14 10 12 0 21 4 21 9 0 5 -8 8 -17 7 -11 0 -17 6 -17 16 2 16 -7 18 -63 18
-35 0 -62 4 -59 9 3 4 -29 8 -72 8 -51 0 -69 -2 -52 -7 18 -6 8 -8 -38 -9 -35
-1 -61 3 -58 7 2 4 -4 8 -14 8 -10 0 -16 -4 -14 -8 3 -4 -13 -8 -35 -8 -23 0
-41 5 -41 10 0 6 -19 9 -42 9 l-43 -2 40 -7 c40 -8 40 -8 -10 -6 l-50 1 -1 70
-1 70 7 -65 c6 -57 7 -50 8 55 1 81 -1 115 -8 105 -7 -10 -9 3 -8 45 l1 60 7
-45 c6 -40 7 -36 8 32 2 66 0 76 -13 72 -12 -5 -13 -10 -4 -20 6 -7 9 -19 6
-26 -4 -8 -6 -7 -6 5 -1 9 -4 16 -8 16 -22 -4 -35 3 -30 15 6 16 -76 29 -124
19 -17 -3 -29 -1 -29 5 0 6 12 12 27 14 14 2 29 10 31 18 4 13 3 13 -10 2 -14
-11 -17 -9 -23 18 -4 16 -12 30 -18 30 -7 0 -7 4 2 9 11 7 14 36 15 120 1 61
-1 111 -4 111 -10 0 -9 79 1 85 5 4 9 15 9 26 0 11 4 18 9 14 5 -3 13 0 17 6
5 8 -3 10 -25 7 -21 -3 -31 0 -31 9 0 9 14 13 43 13 42 0 43 -1 45 -34 1 -19
-3 -38 -9 -42 -9 -5 -10 -2 -6 9 9 23 -10 21 -22 -2 -13 -23 -5 -31 27 -31 20
0 22 -3 12 -14 -9 -12 -7 -17 9 -28 35 -22 25 -44 -16 -39 -8 1 -10 -5 -7 -14
4 -10 0 -15 -15 -15 -17 0 -21 -6 -21 -30 0 -23 5 -30 18 -30 18 0 24 -19 23
-84 0 -16 2 -17 17 -3 12 11 22 13 35 6 13 -8 19 -6 25 8 7 18 8 158 1 203 -2
14 1 26 6 28 9 2 16 -45 18 -126 0 -21 3 -28 9 -20 4 7 8 8 8 3 0 -6 -5 -16
-10 -21 -6 -6 -12 -27 -14 -48 -2 -26 -11 -46 -32 -65 -30 -28 -74 -46 -74
-30 0 5 8 9 19 9 10 0 24 7 31 15 9 11 9 15 1 15 -7 0 -9 4 -6 10 3 5 1 10 -5
10 -7 0 -14 -8 -17 -19 -3 -13 -11 -17 -24 -14 -14 4 -19 0 -19 -16 0 -19 10
-26 33 -22 5 1 7 -8 5 -20 -2 -12 3 -24 11 -27 9 -3 11 1 7 16 -4 13 -1 22 9
26 12 4 15 0 13 -16 -2 -16 3 -23 17 -26 15 -2 17 -1 6 6 -11 8 -10 12 8 21
20 11 21 10 17 -14 -4 -21 -2 -25 10 -21 9 3 18 6 20 6 2 0 4 10 4 23 0 18 -2
19 -10 7 -8 -13 -10 -13 -10 2 0 9 4 20 10 23 6 4 9 71 8 173 -1 121 -3 149
-8 102 -6 -60 -7 -57 -7 35 0 67 2 88 7 65 l7 -35 2 40 c0 23 -3 45 -8 50 -12
12 -14 37 -10 100 2 46 3 43 9 -25 4 -41 6 168 6 465 1 297 -2 511 -5 475 l-6
-65 -5 55 c-8 91 -4 100 38 99 l37 -2 -35 -7 c-32 -7 -30 -7 20 -9 39 0 51 2
40 9 -13 8 -13 10 2 10 9 0 20 -5 23 -10 4 -7 233 -10 673 -9 367 0 675 -3
685 -6 9 -4 17 -4 17 -1 0 4 -10 11 -22 16 -22 8 -22 9 4 9 14 1 29 -5 31 -11
4 -10 6 -9 6 1 1 10 4 11 14 3 9 -8 31 -9 65 -3 29 4 55 5 57 0 3 -4 -7 -10
-22 -12 -26 -4 -26 -4 5 -6 22 -1 32 3 32 14 0 8 -3 15 -7 15 -5 0 -54 2 -110
5 -60 2 -103 1 -103 -5 0 -5 -18 -8 -40 -7 -22 1 -40 5 -40 9 0 5 -8 5 -17 0
-10 -5 -34 -8 -53 -8 -31 1 -35 4 -33 26 2 21 1 23 -8 8 -6 -12 -24 -19 -47
-19 l-37 -2 40 -7 40 -7 -42 -2 c-23 0 -44 3 -47 8 -7 10 -90 8 -125 -4 -16
-5 -21 -4 -17 4 4 6 3 11 -3 11 -5 0 -13 -5 -17 -11 -6 -11 -51 -9 -146 4 -15
2 -25 1 -23 -4 3 -4 -33 -8 -79 -8 -47 0 -88 4 -91 9 -3 6 -11 10 -16 10 -6 0
-8 -3 -6 -7 3 -5 -10 -8 -28 -8 -18 0 -32 2 -30 5 2 3 -27 6 -64 6 -60 2 -62
1 -21 -6 39 -6 34 -7 -38 -8 -53 -1 -81 2 -77 8 3 6 -3 10 -15 10 -12 0 -18
-4 -15 -10 4 -6 -8 -10 -30 -10 -20 0 -34 4 -30 10 3 5 11 8 18 6 7 -1 8 -1 4
2 -4 2 -3 10 4 18 20 24 -1 15 -25 -11 -20 -22 -31 -25 -82 -23 l-59 1 60 7
c53 6 55 7 18 8 -40 2 -63 22 -25 22 9 0 13 4 7 8 -14 10 -17 39 -5 47 5 3 10
-1 10 -9 0 -20 17 -29 26 -15 5 8 3 9 -6 4 -9 -5 -11 -4 -6 4 6 9 11 9 22 0
16 -13 10 -29 -12 -29 -8 0 -14 -5 -14 -10 0 -21 42 12 53 41 6 16 17 29 25
29 7 0 11 -4 8 -8 -2 -4 -1 -14 5 -22 6 -12 9 -9 9 10 0 30 -17 50 -41 50 -12
0 -17 -6 -14 -19 3 -16 -1 -19 -23 -16 -15 2 -27 4 -27 5 0 1 -12 4 -27 6 -16
3 -28 0 -28 -6 0 -5 3 -10 8 -10 4 0 7 -14 8 -30 1 -21 -4 -30 -15 -30 -13 0
-13 -2 -3 -9 22 -14 -16 -19 -107 -14 -80 5 -83 4 -76 -16 3 -11 1 -30 -5 -42
-7 -12 -8 -19 -3 -16 5 3 9 -25 8 -64 0 -41 -4 -68 -10 -67 -5 2 -9 9 -9 16 1
6 -6 12 -15 13 -10 0 -11 2 -3 6 6 2 10 9 6 14 -3 5 1 9 8 9 9 0 9 3 -2 10
-13 9 -13 11 0 20 13 8 12 10 -3 10 -11 0 -15 4 -11 12 4 6 3 8 -4 4 -6 -4 -8
-21 -5 -41 5 -30 3 -35 -13 -35 -15 0 -16 2 -5 9 11 7 11 10 0 15 -10 4 -11 7
-2 12 7 3 9 12 6 20 -9 23 -31 -2 -27 -31 2 -22 -2 -25 -28 -25 -25 0 -29 -3
-23 -17 4 -10 8 -29 9 -43 1 -19 6 -24 23 -23 20 2 22 -1 18 -32 -5 -35 8 -48
18 -21 3 8 15 14 26 13 26 -2 26 -9 1 -25 -11 -7 -17 -18 -14 -27 3 -8 10 -12
15 -9 10 6 11 1 13 -73 0 -29 -2 -53 -6 -53 -7 0 -12 24 -9 43 1 5 -3 6 -8 3
-5 -3 -14 1 -21 9 -7 8 -21 15 -32 15 -13 0 -18 6 -16 18 5 24 41 22 50 -3 4
-12 5 -4 4 20 -2 32 -7 41 -25 43 -19 3 -26 13 -22 35 0 4 -3 7 -9 7 -5 0 -10
-4 -10 -10 0 -5 -6 -10 -14 -10 -20 0 -27 69 -8 79 15 9 8 51 -9 51 -5 0 -9 5
-9 10 0 6 11 10 25 10 16 0 25 6 25 15 0 8 4 15 10 15 5 0 7 7 4 15 -5 13 13
20 46 17 3 0 17 15 30 35 22 33 23 36 7 48 -9 7 -17 17 -17 24 0 6 -7 11 -15
11 -8 0 -15 7 -15 15 0 8 -11 17 -25 21 -25 6 -36 34 -12 34 16 -1 62 -42 77
-70 8 -15 15 -19 22 -12 8 8 6 16 -6 27 -35 36 -43 75 -15 75 6 0 7 -5 4 -10
-10 -17 5 -49 28 -62 20 -10 21 -10 8 5 -9 12 -10 17 -2 17 7 0 9 5 6 10 -3 6
-2 10 3 10 6 0 13 -7 16 -16 4 -10 2 -13 -7 -8 -9 5 -9 4 0 -6 17 -18 38 -3
22 16 -11 13 -9 13 14 3 15 -7 24 -16 21 -20 -3 -5 4 -9 15 -9 12 0 21 5 21
11 0 5 -4 8 -9 5 -5 -3 -11 0 -14 7 -4 10 7 12 43 10 l48 -4 -7 28 c-9 34 -42
42 -62 16 -13 -16 -12 -17 2 -5 17 13 49 7 49 -9 0 -10 -23 -11 -112 -9 -37 1
-58 -3 -58 -10 0 -6 -5 -8 -10 -5 -6 4 -9 14 -8 23 2 11 -4 17 -17 17 -14 0
-20 -6 -19 -22 0 -13 -2 -23 -5 -23 -12 0 -39 38 -33 45 4 4 0 5 -8 3 -40 -9
-50 -78 -11 -78 13 0 18 -8 18 -27 1 -16 3 -45 6 -65 4 -34 3 -37 -17 -35 -15
1 -21 -4 -22 -18 -2 -38 -4 -45 -13 -45 -5 0 -11 10 -15 23 -7 30 14 89 31 83
7 -3 13 2 13 10 0 11 -6 13 -20 9 -22 -7 -24 0 -20 75 1 25 6 50 11 56 6 8 1
17 -17 29 -14 9 -23 19 -20 22 3 3 12 0 21 -7 8 -7 15 -9 15 -5 0 4 6 2 14 -4
10 -9 16 -8 26 4 19 22 32 18 24 -7 -6 -20 -5 -21 9 -9 12 9 40 12 94 10 43
-2 88 0 101 5 13 4 28 3 35 -2 12 -10 41 -16 67 -12 11 1 9 4 -5 10 -14 7 -9
8 18 4 24 -4 43 -2 53 7 11 9 18 9 22 2 11 -17 47 -19 65 -4 15 11 17 11 17
-1 0 -11 18 -14 98 -11 53 2 106 5 117 7 11 2 31 -2 45 -9 14 -7 39 -11 55 -8
23 3 27 2 15 -6 -8 -6 -11 -11 -6 -11 5 0 19 11 32 25 23 25 51 35 38 13 -4
-6 -3 -8 4 -4 6 3 13 2 17 -3 3 -6 12 -8 19 -5 15 6 29 -33 15 -42 -5 -3 -16
2 -25 10 -8 9 -23 16 -33 16 -14 0 -17 -6 -13 -27 5 -25 4 -27 -11 -14 -16 13
-21 9 -18 -14 1 -5 -6 -1 -16 11 -26 30 -56 26 -57 -8 -1 -23 3 -28 21 -28 12
0 24 4 27 9 3 5 15 7 27 4 11 -3 17 -9 12 -13 -12 -11 -101 -21 -107 -12 -6
10 -86 3 -86 -7 0 -5 42 -7 93 -5 85 3 94 5 114 28 12 14 27 26 34 26 7 0 4 9
-7 21 -19 22 -19 22 4 8 12 -8 22 -17 22 -21 0 -4 8 -4 17 -1 13 5 15 2 10
-11 -4 -10 -7 -22 -7 -27 0 -6 -4 -8 -9 -5 -4 3 -19 -6 -31 -19 -20 -21 -21
-25 -7 -25 9 0 17 7 17 16 0 10 6 14 14 11 23 -9 39 36 32 87 -6 38 -4 46 8
46 9 0 16 -7 16 -15 0 -8 7 -15 15 -15 8 0 15 4 15 9 0 5 39 7 88 6 55 -2 90
1 94 8 5 8 17 7 40 -4 31 -14 73 -15 64 -1 -5 9 116 8 130 -1 17 -10 24 -47 9
-47 -7 0 -15 -9 -18 -21 -5 -19 -4 -19 11 -6 18 15 46 12 36 -4 -3 -5 -1 -9 4
-9 6 0 13 -12 16 -26 4 -15 9 -24 12 -21 9 9 -17 81 -32 90 -21 12 -18 59 2
55 10 -2 19 3 21 10 3 7 -5 12 -21 12 -14 0 -26 -5 -26 -12 0 -9 -3 -9 -12 0
-16 16 -380 17 -410 1 -23 -12 -39 -2 -18 11 12 7 9 10 -12 10 -15 0 -33 -7
-41 -15 -9 -9 -17 -11 -19 -5 -4 12 -380 16 -397 6 -5 -4 -12 -2 -15 3 -4 5
-130 10 -300 10 -162 1 -303 4 -312 8 -12 4 -15 3 -10 -6z m920 -122 c-8 -14
-34 -10 -34 5 0 9 7 12 20 9 11 -3 17 -9 14 -14z m-744 -85 c0 -3 -5 -14 -10
-25 -12 -22 -35 -26 -27 -5 4 10 1 13 -9 9 -7 -3 -14 -2 -14 1 0 4 10 11 23
16 27 11 37 12 37 4z m50 -241 c0 -53 -2 -94 -5 -91 -9 9 -9 188 0 188 3 0 5
-43 5 -97z m-67 81 c11 -12 -14 -45 -31 -42 -9 1 -23 -1 -31 -6 -9 -6 -12 -5
-9 5 3 8 15 13 27 12 22 -3 29 11 10 23 -6 3 -16 1 -22 -5 -15 -15 -27 -14
-27 4 0 11 11 15 38 15 21 0 42 -3 45 -6z m42 -91 c-1 -19 -11 -42 -21 -51
-17 -16 -17 -16 -5 0 7 9 10 25 7 35 -8 26 -6 38 8 35 6 -1 1 6 -11 17 -12 10
-19 21 -16 25 15 15 41 -27 38 -61z m-37 17 c-7 -11 -16 -20 -21 -20 -4 0 -5
5 -1 11 3 6 0 15 -7 20 -10 6 -6 9 14 9 25 0 26 -2 15 -20z m-73 -80 c4 -6 11
-7 17 -4 7 4 8 2 4 -4 -4 -7 -14 -12 -21 -12 -19 0 -37 -34 -29 -54 3 -9 15
-16 25 -16 11 0 16 -5 13 -14 -6 -16 33 -29 40 -12 2 6 5 1 5 -11 1 -13 -3
-23 -9 -23 -5 0 -10 5 -10 10 0 6 -7 10 -15 10 -8 0 -13 -6 -11 -12 17 -54 16
-67 -6 -70 -25 -3 -31 -29 -9 -36 8 -3 11 0 7 7 -5 7 1 11 15 11 15 0 19 -4
13 -12 -5 -7 -9 -26 -8 -42 1 -20 -7 -36 -24 -51 -26 -23 -23 -45 6 -45 13 0
17 -9 17 -35 0 -19 -4 -35 -8 -35 -5 0 -6 -9 -2 -20 5 -15 3 -18 -9 -14 -11 4
-19 -2 -26 -20 -12 -34 -3 -59 21 -53 21 6 22 5 13 -18 -6 -13 -9 -14 -16 -3
-5 8 -8 -12 -7 -53 1 -36 -1 -71 -6 -78 -4 -8 0 -20 9 -29 16 -16 17 -16 10 1
-5 14 0 17 25 17 21 0 33 6 37 18 3 9 12 29 20 44 16 30 18 48 5 48 -5 0 -11
-12 -13 -27 -2 -14 -9 -29 -17 -31 -9 -3 -11 0 -6 7 11 19 17 71 10 89 -5 14
-7 14 -15 2 -6 -8 -10 -19 -10 -25 0 -5 5 -3 10 5 8 12 10 11 10 -8 0 -19 -2
-21 -19 -10 -18 11 -19 15 -5 46 16 40 18 72 4 72 -5 0 -10 9 -10 20 0 26 17
26 25 -1 6 -19 7 -19 20 -2 11 15 13 8 10 -50 -4 -66 7 -97 20 -56 11 34 -4
129 -21 130 -8 1 -19 2 -26 3 -6 0 -13 7 -16 15 -3 9 0 11 9 5 11 -6 10 -3 -1
11 -12 15 -12 17 -1 10 11 -6 13 -4 8 9 -5 12 -3 16 5 13 7 -2 12 -11 12 -20
-1 -10 3 -14 9 -10 6 4 8 0 4 -10 -3 -10 -2 -17 3 -17 17 0 11 36 -7 52 -20
17 -54 32 -65 30 -5 -1 -8 3 -8 9 0 6 9 9 20 6 15 -4 21 -1 19 11 -3 39 1 54
16 49 8 -4 17 -2 20 3 12 20 35 -3 35 -36 0 -26 -3 -32 -15 -28 -9 4 -14 13
-13 22 2 8 -3 17 -9 19 -25 9 -13 -34 12 -45 14 -6 25 -17 25 -23 0 -8 -6 -7
-17 2 -17 13 -17 13 0 -7 19 -23 22 -50 6 -60 -8 -5 -8 -9 1 -14 12 -7 12 -20
7 -197 -1 -34 -5 -65 -9 -69 -4 -4 -4 -12 -1 -18 4 -6 9 -33 11 -60 2 -36 0
-47 -10 -43 -7 2 -12 11 -10 21 2 9 -3 16 -10 16 -9 0 -9 3 2 10 13 9 13 10 0
10 -9 0 -11 3 -5 8 13 9 16 42 4 42 -5 0 -2 15 6 33 l16 32 -22 -28 c-33 -43
-31 -124 5 -152 34 -27 33 -40 -1 -19 -21 12 -23 12 -10 1 23 -19 8 -30 -17
-12 -10 8 -15 19 -10 26 4 7 3 10 -3 6 -6 -4 -9 13 -9 43 1 28 4 50 9 50 4 0
7 5 7 10 0 6 -7 10 -15 10 -8 0 -15 -9 -15 -20 0 -15 -6 -19 -30 -17 -40 3
-54 35 -39 87 8 27 9 43 2 52 -10 13 -10 46 3 136 3 27 10 42 20 42 8 0 14 9
14 21 0 11 -5 17 -10 14 -6 -4 -8 -11 -5 -16 4 -5 -3 -9 -13 -9 -26 0 -37 69
-14 86 9 6 13 18 9 28 -4 9 -2 16 2 16 5 0 11 -6 13 -12 3 -8 9 -4 17 10 12
23 11 23 -23 16 -24 -4 -36 -2 -36 5 0 6 14 11 30 11 17 0 30 5 30 11 0 6 -8
8 -19 4 -14 -4 -20 1 -25 21 -4 15 -3 31 3 37 5 5 7 41 4 83 -7 91 18 164 42
124z m120 -60 c-2 -3 -6 -32 -9 -64 -3 -42 -11 -65 -27 -82 -12 -13 -19 -24
-15 -24 4 0 16 10 27 23 14 16 18 18 19 7 0 -9 -6 -22 -12 -29 -10 -11 -10
-13 0 -7 8 5 12 0 12 -13 0 -23 -1 -24 -24 -15 -9 3 -13 10 -10 15 3 5 0 9 -5
9 -6 0 -11 -7 -11 -15 0 -8 -8 -15 -17 -15 -11 0 -14 3 -8 8 6 4 10 14 10 22
-1 8 10 30 24 48 20 28 25 46 27 115 2 98 4 102 14 57 5 -19 7 -37 5 -40z
m-45 -99 c0 -18 -12 -41 -21 -41 -6 0 -4 10 2 23 9 18 9 20 -2 10 -7 -7 -18
-13 -23 -13 -12 1 24 30 36 30 4 0 8 -4 8 -9z m60 -43 c0 -29 -4 -48 -8 -41
-7 12 -4 93 4 93 2 0 4 -24 4 -52z m-3 -180 c-2 -18 -4 -4 -4 32 0 36 2 50 4
33 2 -18 2 -48 0 -65z m-99 -135 c-4 -20 -18 -26 -37 -14 -18 12 -5 31 20 31
14 0 19 -6 17 -17z m-11 -147 c2 -25 -1 -46 -6 -46 -13 0 -21 26 -21 73 0 56
21 34 27 -27z m63 -252 c0 -8 -5 -14 -11 -14 -5 0 -7 5 -3 12 5 7 2 9 -8 5
-21 -8 -30 3 -17 20 13 15 39 0 39 -23z m-12 -94 c-1 -22 3 -45 9 -51 11 -11
7 -39 -6 -39 -4 0 -13 16 -19 34 -11 31 -17 34 -42 31 -21 -2 -30 1 -30 11 0
21 27 29 47 13 15 -13 16 -11 9 14 -5 23 -3 27 14 27 18 0 20 -6 18 -40z m-19
-87 c1 -21 -17 -15 -24 7 -9 27 6 50 16 24 4 -10 8 -25 8 -31z m65 -110 c-24
-17 -37 -16 -31 1 4 10 1 13 -9 9 -21 -8 -17 1 12 28 l27 24 -6 -22 c-3 -13
-1 -26 4 -29 5 -3 9 -2 8 3 -1 4 0 33 2 63 l3 55 3 -60 c3 -48 1 -62 -13 -72z
m-94 -71 c0 -4 -9 -13 -20 -20 -25 -15 -28 -57 -4 -48 25 10 34 -2 23 -31 -7
-20 -6 -28 3 -35 10 -6 9 -8 -4 -8 -11 0 -15 -5 -12 -14 3 -8 -3 -16 -16 -19
-17 -4 -21 -12 -18 -34 2 -23 7 -28 26 -25 15 1 22 -2 19 -10 -2 -7 -11 -12
-21 -10 -13 2 -16 -6 -16 -43 0 -25 4 -45 9 -45 5 0 7 18 4 39 -5 36 -3 39 14
35 12 -3 20 0 21 8 1 7 5 28 8 46 4 19 2 38 -5 46 -17 20 2 28 25 12 14 -10
18 -24 16 -50 -2 -23 1 -36 8 -36 10 0 9 -4 0 -15 -10 -12 -9 -15 5 -15 16 0
17 9 11 92 -3 50 -8 94 -11 96 -5 5 -9 -31 -6 -58 1 -12 0 -12 -7 -2 -5 7 -15
12 -22 10 -22 -5 -22 20 0 27 20 7 21 7 3 22 -16 13 -17 14 0 9 9 -3 17 -2 17
3 0 5 -11 12 -25 15 -14 4 -23 11 -20 16 4 6 18 4 36 -5 16 -9 29 -11 29 -5 0
5 -4 10 -8 10 -5 0 -19 9 -32 20 -30 26 -7 26 29 -1 29 -21 30 -28 33 -181 1
-15 5 -25 10 -21 6 3 5 -4 -1 -15 -6 -11 -11 -35 -11 -52 0 -24 -9 -41 -37
-66 -20 -18 -41 -30 -46 -27 -6 3 -7 1 -3 -5 3 -6 -1 -18 -10 -26 -11 -12 -12
-16 -2 -16 10 0 9 -3 -2 -10 -20 -13 -80 -13 -80 0 0 6 8 10 18 11 14 0 14 2
-3 9 -18 8 -18 9 -2 9 14 1 16 5 8 20 -6 10 -8 21 -5 24 8 7 11 237 4 237 -15
0 -4 89 15 114 18 24 55 36 55 18z m5 -203 c0 -7 -8 -15 -17 -17 -18 -3 -25
18 -11 32 10 10 28 1 28 -15z m255 -223 c-6 -8 -19 -12 -27 -9 -11 4 -14 2 -9
-5 4 -7 3 -12 -3 -12 -5 0 -12 6 -14 13 -5 10 -11 -16 -9 -34 1 -4 -8 -9 -19
-12 -15 -4 -19 -2 -15 10 3 8 6 17 6 19 0 3 5 2 11 -2 7 -4 10 -1 7 7 -3 8
-13 14 -23 14 -10 0 -20 6 -22 13 -4 9 13 12 62 12 58 0 66 -2 55 -14z m380
-1 c20 -24 6 -28 -15 -5 -10 11 -13 20 -8 20 6 0 16 -7 23 -15z m-280 -23 c11
7 22 9 26 5 10 -10 0 -18 -28 -21 -13 -1 -29 -6 -36 -10 -16 -9 -16 6 0 22 8
8 14 9 16 3 2 -7 10 -6 22 1z m240 -2 c8 -5 11 -12 7 -16 -4 -4 -12 -3 -18 3
-6 6 -18 9 -25 6 -8 -3 -14 0 -14 6 0 13 29 14 50 1z m-22 -127 c-10 -2 -18
-9 -18 -14 0 -5 -5 -9 -11 -9 -8 0 -8 5 1 15 7 8 20 14 29 14 13 -1 13 -2 -1
-6z m-192 -10 c-4 -5 -20 -8 -36 -8 -15 0 -26 3 -23 8 2 4 18 7 35 7 17 0 28
-3 24 -7z m89 -3 c17 -7 14 -9 -13 -9 -20 -1 -31 3 -27 9 7 12 13 12 40 0z"/>
<path d="M389 2049 c-6 -27 4 -69 12 -53 3 5 2 25 -1 44 -5 33 -6 33 -11 9z"/>
<path d="M393 785 c0 -22 2 -30 4 -17 2 12 2 30 0 40 -3 9 -5 -1 -4 -23z"/>
<path d="M422 606 c13 -9 14 -16 6 -24 -8 -8 -7 -16 3 -28 13 -16 12 -17 -12
-11 -32 8 -46 -15 -22 -35 14 -11 16 -11 10 4 -3 10 -3 17 1 17 37 -6 105 51
95 78 -8 21 -43 16 -43 -6 0 -11 -5 -23 -12 -27 -8 -5 -9 -2 -4 11 4 11 2 22
-6 27 -21 13 -34 8 -16 -6z m68 -10 c0 -7 -8 -20 -17 -27 -15 -12 -16 -12 -10
4 4 10 7 23 7 28 0 5 5 9 10 9 6 0 10 -6 10 -14z"/>
<path d="M2658 2695 c-2 -3 -70 -5 -151 -6 -83 0 -147 -4 -147 -10 0 -5 -5 -9
-11 -9 -5 0 -8 4 -4 9 3 6 -73 10 -197 10 -185 1 -205 -1 -228 -18 -27 -21
-20 -42 8 -25 9 5 54 9 100 9 46 -1 85 2 88 7 3 4 15 8 27 8 19 0 18 -3 -10
-21 -44 -28 -42 -34 4 -9 25 13 40 16 49 10 15 -13 46 -2 37 14 -4 6 1 5 11
-3 13 -11 14 -16 4 -22 -10 -7 -9 -9 5 -9 9 0 17 6 17 14 0 16 45 30 63 19 19
-12 40 -13 53 -2 7 6 16 4 24 -6 7 -9 17 -12 24 -7 6 5 53 8 103 6 62 -1 91 2
86 9 -4 6 2 8 15 5 12 -4 26 0 33 8 11 13 9 30 -3 19z"/>
<path d="M1113 2643 c-7 -2 -13 -9 -13 -14 0 -6 9 -5 21 2 15 8 24 8 32 0 18
-18 0 -24 -83 -23 -44 0 -80 -5 -80 -10 0 -5 -5 -6 -10 -3 -6 4 -9 14 -8 23 5
26 -29 26 -43 0 -12 -22 -11 -23 8 -5 26 23 31 22 26 -6 -3 -15 3 -29 19 -42
22 -19 22 -19 8 -1 -14 18 -13 19 4 13 14 -6 17 -4 12 9 -5 14 -4 15 9 4 8 -7
13 -16 10 -19 -2 -4 2 -8 9 -8 8 0 12 6 9 14 -3 7 0 13 6 13 6 0 11 -7 11 -15
0 -17 28 -20 50 -4 12 8 10 9 -7 4 -14 -4 -23 -2 -23 4 0 11 23 15 72 11 23
-1 26 2 21 22 -9 34 -29 44 -60 31z"/>
<path d="M879 2636 c-1 -3 -2 -19 -3 -35 -1 -22 2 -27 11 -19 7 6 10 15 6 21
-3 6 -1 7 5 3 7 -4 12 -4 12 -1 0 9 -30 38 -31 31z"/>
<path d="M1432 2628 c-7 -7 -12 -19 -11 -27 0 -10 4 -7 9 7 12 28 34 29 27 1
-7 -27 36 -69 70 -69 20 0 22 4 17 25 -7 29 10 34 25 8 8 -14 13 -15 33 -5 23
12 23 12 1 8 -13 -2 -23 1 -23 7 0 8 27 12 80 13 63 1 78 -2 70 -11 -8 -9 -6
-14 4 -18 9 -4 18 -2 21 3 10 16 28 11 21 -5 -9 -25 2 -17 18 13 l15 27 1 -25
c0 -20 2 -22 10 -10 5 8 7 23 4 33 -3 10 0 17 8 17 20 0 -13 20 -34 20 -11 0
-15 -6 -11 -19 6 -25 -6 -31 -37 -18 -35 14 -70 19 -70 10 0 -4 -34 -7 -75 -6
-72 3 -81 -1 -76 -29 0 -5 -4 -8 -10 -8 -6 0 -8 9 -4 20 5 14 2 20 -9 20 -9 0
-16 -4 -16 -10 0 -5 -5 -10 -11 -10 -6 0 -9 9 -6 19 3 12 -1 22 -10 25 -19 8
-17 8 -31 -6z m84 -63 c25 -13 26 -15 8 -15 -12 0 -27 7 -34 15 -16 19 -10 19
26 0z"/>
<path d="M1519 2631 c12 -8 51 -4 51 5 0 2 -15 4 -32 4 -23 0 -29 -3 -19 -9z"/>
<path d="M1932 2628 c-14 -14 -15 -47 -2 -68 5 -8 10 -11 10 -6 0 5 10 1 22
-10 l21 -19 -18 27 c-9 15 -22 25 -28 21 -7 -4 -8 0 -4 11 4 10 7 24 7 32 0 8
5 14 11 14 5 0 9 -8 8 -17 -4 -22 18 -63 33 -63 6 0 5 6 -3 17 -13 15 -12 15
8 5 26 -15 102 -15 123 -2 10 7 1 8 -32 5 -33 -4 -48 -2 -48 6 0 6 6 9 14 6 8
-3 17 -3 20 1 4 3 28 5 55 3 47 -2 48 -2 44 23 -3 14 -9 26 -14 26 -5 0 -6 -7
-3 -15 7 -16 -5 -18 -108 -17 -34 1 -58 -3 -58 -9 0 -6 -5 -7 -11 -4 -6 4 -8
13 -5 20 2 7 -2 16 -10 19 -20 8 -18 8 -32 -6z"/>
<path d="M2033 2633 c9 -2 25 -2 35 0 9 3 1 5 -18 5 -19 0 -27 -2 -17 -5z"/>
<path d="M2288 2613 c4 -24 3 -26 -10 -16 -8 7 -18 10 -21 7 -3 -3 -12 -2 -19
2 -20 13 -58 16 -58 4 0 -9 19 -14 45 -11 6 0 11 -10 11 -24 2 -18 -3 -25 -17
-25 -10 0 -18 3 -18 8 4 25 -1 33 -15 20 -10 -9 -11 -15 -2 -20 6 -5 0 -8 -14
-8 -21 -1 -22 -2 -8 -10 9 -6 37 -7 63 -3 49 6 75 30 78 72 1 15 4 17 14 9 8
-6 17 -8 20 -4 9 9 -16 26 -38 26 -12 0 -15 -7 -11 -27z m-8 -43 c0 -5 -5 -12
-11 -16 -12 -7 -31 15 -23 28 6 9 34 -1 34 -12z"/>
<path d="M2361 2628 c-1 -9 5 -19 12 -22 6 -3 2 -3 -10 0 -20 5 -21 2 -16 -33
7 -46 13 -55 13 -20 0 16 8 30 20 37 23 12 28 45 6 37 -8 -3 -17 -1 -20 6 -2
7 -5 5 -5 -5z"/>
<path d="M914 2568 c1 -15 6 -31 11 -35 4 -5 5 -2 0 6 -6 11 -4 13 8 8 10 -4
17 -2 17 5 0 6 10 3 23 -8 l22 -19 -18 21 c-11 13 -26 20 -37 17 -12 -3 -20 1
-23 14 -3 10 -4 6 -3 -9z"/>
<path d="M1683 2575 c-10 -11 -10 -15 0 -19 9 -3 8 -7 -3 -15 -13 -9 -12 -11
5 -10 11 1 34 5 50 9 l30 8 -27 1 c-25 1 -33 10 -29 34 2 11 -13 7 -26 -8z"/>
<path d="M1854 2567 c-8 -34 -2 -42 13 -18 6 10 8 24 3 31 -6 10 -10 7 -16
-13z"/>
<path d="M1450 2555 c13 -14 25 -23 27 -21 6 6 -30 46 -41 46 -5 0 1 -11 14
-25z"/>
<path d="M575 2539 c21 -5 45 -7 52 -5 7 3 15 1 18 -4 9 -15 35 -12 35 3 0 10
-19 14 -72 15 -67 1 -70 0 -33 -9z"/>
<path d="M1290 2536 c-6 -8 -30 -17 -53 -19 l-42 -4 45 -1 c36 -2 48 2 58 18
14 23 10 27 -8 6z"/>
<path d="M1444 2533 c13 -16 29 -23 50 -22 l31 2 -30 4 c-16 3 -39 12 -50 21
-20 17 -20 17 -1 -5z"/>
<path d="M2290 2536 c-6 -8 -28 -17 -48 -19 l-37 -4 40 -1 c31 -2 43 3 53 18
14 23 10 27 -8 6z"/>
<path d="M2313 2532 c-9 -15 -8 -19 2 -19 8 0 16 9 18 19 3 10 2 18 -2 18 -3
0 -11 -8 -18 -18z"/>
<path d="M590 2453 c15 -10 25 -13 27 -6 4 11 136 9 155 -3 7 -4 8 -2 4 4 -5
9 19 12 91 10 90 -1 93 -2 38 -8 l-60 -7 71 -1 c44 -1 75 3 83 11 11 10 14 10
18 0 3 -7 9 -13 14 -13 6 0 7 5 4 10 -4 6 25 9 82 8 l88 -2 -80 -6 c-44 -3
228 -6 605 -6 l685 1 -595 5 c-327 3 -584 8 -570 11 14 4 -135 7 -330 8 -335
1 -353 0 -330 -16z"/>
<path d="M1608 2463 c156 -2 408 -2 560 0 152 1 25 2 -283 2 -308 0 -433 -1
-277 -2z"/>
<path d="M580 2310 c-1 -80 -1 -451 0 -825 0 -374 0 -741 0 -815 l0 -135 935
0 c513 0 931 3 926 8 -4 4 -53 8 -109 9 -62 1 -102 5 -102 12 0 6 -5 5 -12 -2
-15 -15 -122 -17 -113 -2 4 6 -27 9 -87 8 l-93 -2 85 -6 85 -6 -92 -2 c-69 -2
-93 1 -93 11 0 7 -3 8 -8 2 -4 -5 -35 -10 -69 -10 -33 0 -56 3 -50 7 7 5 0 8
-15 8 -16 0 -28 -4 -28 -10 0 -6 -198 -9 -572 -8 l-573 2 3 940 c1 623 -1 943
-8 950 -7 7 -10 -37 -10 -134z"/>
<path d="M2421 1513 c-1 -888 -2 -942 -18 -946 -16 -4 -16 -5 -1 -6 9 0 20 5
25 12 9 15 11 1841 1 1865 -4 9 -7 -407 -7 -925z"/>
<path d="M626 2420 c7 -7 306 -9 886 -8 l875 3 -4 -35 c-8 -62 -8 -668 0 -663
4 2 7 -1 7 -6 0 -6 -5 -11 -11 -11 -8 0 -8 -4 -1 -13 7 -9 10 -49 7 -113 -2
-54 -4 -101 -5 -104 -3 -101 -6 -815 -2 -838 17 -118 22 70 22 883 l0 915
-892 0 c-601 0 -889 -3 -882 -10z"/>
<path d="M2724 1899 c-1 -16 2 -26 7 -23 11 6 12 41 1 48 -4 2 -8 -9 -8 -25z"/>
<path d="M618 1214 c-2 -252 -2 -498 0 -546 l3 -88 892 0 c591 1 886 4 875 10
-11 7 -328 9 -887 8 l-870 -3 0 534 c-1 294 -3 536 -6 539 -2 3 -6 -202 -7
-454z"/>
<path d="M2721 1054 c-1 -241 0 -436 3 -434 7 7 11 859 4 866 -4 3 -7 -191 -7
-432z"/>
<path d="M389 1278 c-7 -27 -6 -68 1 -68 6 0 10 16 10 35 0 19 -2 35 -5 35 -3
0 -5 -1 -6 -2z"/>
<path d="M412 1249 c2 -7 10 -15 17 -17 8 -3 12 1 9 9 -2 7 -10 15 -17 17 -8
3 -12 -1 -9 -9z"/>
<path d="M2620 1171 c0 -12 5 -21 10 -21 6 0 10 6 10 14 0 8 -4 18 -10 21 -5
3 -10 -3 -10 -14z"/>
<path d="M390 1069 c0 -22 4 -38 8 -35 8 5 4 76 -4 76 -2 0 -4 -18 -4 -41z"/>
<path d="M2551 992 c-1 -13 3 -21 8 -17 5 3 12 1 16 -5 3 -5 2 -10 -3 -10 -6
0 -13 -7 -16 -16 -3 -8 -2 -12 4 -9 6 3 10 1 10 -4 0 -6 -7 -11 -15 -11 -8 0
-15 -5 -15 -11 0 -5 -5 -7 -10 -4 -6 4 -8 11 -5 16 4 5 2 9 -2 9 -5 0 -8 -60
-7 -132 1 -171 2 -178 15 -178 6 0 8 9 4 20 -8 26 4 48 16 29 7 -11 9 -10 9 3
0 9 5 18 11 20 6 2 5 14 -5 33 l-16 30 0 -32 c0 -18 -4 -33 -10 -33 -12 0 -10
199 2 206 15 9 20 -3 10 -23 -5 -10 -6 -29 -1 -43 7 -24 7 -24 8 -2 1 19 3 21
15 10 10 -9 11 -15 2 -20 -8 -6 -8 -8 1 -8 8 0 8 -7 0 -30 -9 -23 -9 -35 1
-50 15 -24 16 -50 1 -50 -5 0 -8 -4 -5 -9 4 -5 1 -11 -6 -13 -16 -6 -18 -50
-2 -66 8 -8 23 -11 34 -7 11 4 20 2 20 -4 0 -6 -10 -11 -22 -11 -13 0 -29 -4
-36 -9 -10 -6 -8 -10 8 -14 15 -4 30 2 47 19 28 28 23 44 -13 44 -21 0 -23 2
-12 14 7 7 13 31 13 53 0 29 3 40 14 39 19 -1 25 25 16 80 -4 29 -11 44 -21
44 -14 0 -18 12 -15 38 1 8 -3 20 -10 28 -11 13 -9 14 14 9 24 -6 27 -4 27 19
0 18 -5 26 -17 25 -11 0 -13 -3 -5 -6 20 -8 4 -22 -18 -16 -15 4 -18 9 -10 18
6 7 9 19 8 26 -2 7 10 16 27 20 29 6 29 7 -8 8 -23 1 -36 -3 -32 -9 3 -5 2
-10 -4 -10 -5 0 -12 6 -14 13 -3 6 -6 2 -6 -11z m69 -182 c9 -17 8 -20 -9 -20
-14 0 -18 5 -14 20 3 11 7 20 9 20 2 0 8 -9 14 -20z m4 -39 c10 -16 -5 -41
-25 -41 -14 0 -19 7 -19 25 0 18 5 25 19 25 11 0 22 -4 25 -9z"/>
<path d="M283 575 c0 -22 2 -30 4 -17 2 12 2 30 0 40 -3 9 -5 -1 -4 -23z"/>
<path d="M2721 485 c1 -52 4 -95 8 -95 3 0 6 43 6 95 0 52 -4 95 -8 95 -4 0
-7 -43 -6 -95z"/>
<path d="M1065 513 c48 -3 65 -7 55 -13 -10 -7 2 -10 39 -10 45 0 52 -2 41
-14 -6 -8 -18 -12 -26 -9 -10 4 -14 -3 -14 -27 0 -37 38 -80 71 -80 30 0 22
17 -11 24 -17 3 -30 12 -30 20 0 8 -5 16 -10 18 -12 4 38 68 52 68 5 0 0 -12
-11 -26 -12 -15 -21 -32 -21 -38 0 -6 9 4 20 21 25 42 32 43 195 42 50 -1 103
-1 118 -1 21 1 32 -7 47 -31 27 -43 25 -57 -2 -21 -33 44 -40 51 -33 32 8 -20
-5 -24 -22 -7 -6 6 -21 9 -34 6 -22 -4 -22 -4 3 -6 15 0 30 -5 33 -11 6 -10
-13 -14 -45 -11 -13 2 -13 1 0 -8 8 -5 11 -14 6 -18 -4 -4 -13 0 -20 10 -18
24 -29 21 -15 -5 10 -18 9 -20 -6 -15 -9 4 -19 7 -21 7 -3 0 -3 4 1 9 7 13
-68 1 -76 -12 -4 -5 -12 -6 -19 -2 -8 5 -2 16 20 36 33 30 50 37 50 18 0 -6
11 -9 25 -7 14 2 25 8 25 13 0 6 -37 9 -93 8 -86 -2 -94 -4 -114 -28 -41 -47
-32 -53 92 -54 17 0 32 4 33 9 2 6 12 10 23 10 13 0 19 -7 19 -21 0 -19 -4
-21 -30 -15 -33 6 -42 -9 -10 -17 31 -8 58 3 53 21 -3 15 6 17 66 18 51 0 68
-3 64 -12 -7 -20 18 -28 35 -11 14 15 13 15 -7 10 -17 -4 -20 -2 -15 11 3 9 1
23 -6 31 -7 9 -11 18 -8 21 3 2 13 -7 22 -20 17 -26 40 -26 50 0 3 8 2 12 -3
9 -5 -3 -12 -1 -16 5 -3 5 3 10 14 10 27 0 27 16 1 23 -11 3 -20 1 -20 -5 0
-5 -5 -6 -11 -3 -6 4 -8 13 -5 21 4 10 -15 14 -92 17 -53 1 -23 3 68 3 109 0
143 -2 100 -6 -61 -6 -49 -14 15 -10 26 2 28 0 15 -14 -7 -10 -19 -15 -27 -12
-9 4 -13 -3 -13 -19 0 -14 -4 -25 -10 -25 -5 0 -10 -4 -10 -10 0 -18 30 -11
31 8 0 9 5 2 10 -15 7 -23 17 -35 35 -39 26 -7 49 5 26 13 -19 7 -3 23 24 23
28 0 32 -21 8 -44 -12 -12 -12 -16 -2 -17 7 0 0 -5 -15 -11 -22 -8 -32 -7 -45
4 -9 8 -25 18 -35 21 -10 4 -15 11 -12 17 3 5 1 10 -5 10 -6 0 -10 -10 -8 -22
2 -13 9 -22 15 -21 6 1 13 -3 16 -11 3 -7 -1 -13 -9 -13 -8 0 -14 4 -14 9 0 4
-7 8 -15 8 -9 0 -18 6 -21 14 -3 8 -15 11 -31 8 -21 -4 -23 -6 -9 -14 9 -5 21
-6 26 -3 6 3 10 -1 10 -9 0 -9 -7 -16 -15 -16 -8 0 -15 5 -15 10 0 6 -9 10
-20 10 -11 0 -20 4 -20 9 0 6 -46 9 -108 8 -79 -1 -113 2 -125 11 -14 12 -20
11 -38 -2 l-22 -15 26 -6 c22 -6 25 -10 16 -26 -8 -15 -6 -19 6 -19 9 0 14 4
11 9 -7 10 27 21 67 21 17 0 26 -4 22 -10 -4 -7 3 -8 21 -4 20 5 25 4 19 -6
-5 -9 -2 -10 11 -6 27 8 79 8 337 1 157 -4 227 -3 227 4 0 6 12 11 28 10 l27
-1 -25 -8 c-17 -5 -2 -7 45 -7 58 0 64 2 38 9 -33 9 -42 21 -23 33 6 4 9 1 8
-6 -2 -7 6 -14 17 -16 12 -3 16 -1 9 4 -6 4 -13 16 -17 26 -8 21 -21 22 -39 3
-23 -22 -55 -28 -62 -11 -6 17 -66 21 -66 5 0 -5 -24 -10 -54 -10 -30 0 -58 5
-61 10 -3 6 -15 10 -26 10 -20 0 -27 34 -9 45 6 3 10 2 10 -3 0 -6 9 -8 20 -5
11 3 20 9 20 14 0 5 11 8 25 7 17 -2 25 -8 25 -21 0 -16 -6 -18 -30 -15 -34 5
-41 -7 -9 -15 28 -8 49 2 49 22 0 13 12 16 65 16 43 0 65 -3 65 -11 0 -7 6
-14 14 -17 16 -6 36 11 36 30 0 20 17 15 23 -6 4 -18 28 -23 43 -8 3 3 13 0
21 -8 8 -8 26 -15 41 -15 24 1 25 2 10 13 -10 8 -13 18 -9 26 6 10 10 10 16 2
5 -9 10 -9 20 -1 9 7 16 6 25 -5 8 -9 21 -13 36 -9 19 5 23 3 18 -9 -4 -12 2
-18 20 -23 29 -7 58 10 50 29 -3 9 10 11 46 9 28 -2 56 1 64 7 15 13 27 5 20
-14 -10 -24 19 -29 37 -7 15 19 18 20 29 7 7 -8 18 -15 24 -15 6 1 5 6 -4 13
-8 7 -22 21 -30 31 -14 18 -13 19 13 12 24 -6 27 -4 27 18 0 14 -8 27 -17 31
-15 5 -16 4 -5 -6 19 -20 15 -24 -20 -23 -26 1 -35 7 -42 25 -8 22 -14 25 -69
26 -33 1 -65 7 -71 13 -5 5 -26 10 -46 10 -26 0 -31 -3 -20 -10 11 -7 3 -10
-28 -10 -26 0 -41 4 -37 10 3 6 1 10 -4 10 -6 0 -11 -4 -11 -10 0 -5 -9 -10
-19 -10 -11 0 -23 5 -26 10 -4 6 -81 10 -198 10 -128 0 -187 -4 -177 -10 10
-7 -5 -9 -50 -8 l-65 1 50 7 c28 4 -76 7 -230 7 -154 0 -257 -3 -230 -7 l50
-7 -65 -1 c-45 -1 -60 1 -50 8 12 8 10 10 -8 10 -13 0 -20 -4 -17 -10 4 -6
-12 -9 -42 -9 l-48 2 40 7 c27 5 3 7 -70 7 -71 -1 -85 -2 -40 -4z m1072 -9
c-7 -7 -198 -6 -206 1 -2 3 44 5 104 5 60 0 106 -3 102 -6z m69 -17 c251 0
316 -3 325 -13 6 -8 8 -14 3 -14 -5 0 -1 -6 8 -13 23 -18 35 -67 16 -67 -8 0
-14 9 -14 21 1 20 -3 23 -51 30 -19 3 -52 -14 -46 -24 4 -7 -2 -8 -18 -3 -52
17 -91 19 -100 5 -6 -11 -11 -11 -20 -2 -6 6 -18 9 -25 6 -8 -3 -14 0 -14 7 0
8 9 10 25 6 14 -4 25 -2 25 3 0 14 40 25 83 22 28 -1 38 2 35 11 -3 8 -26 14
-64 16 -39 1 -54 -1 -45 -7 10 -6 0 -8 -30 -5 -30 3 -52 -1 -65 -11 -18 -14
-18 -15 6 -7 14 5 36 5 50 1 24 -7 24 -7 3 -8 -30 -1 -28 -1 -63 -11 -25 -7
-30 -6 -31 8 -1 10 -4 7 -8 -8 -4 -14 -4 -26 1 -28 12 -5 10 -22 -2 -22 -6 0
-15 10 -20 23 -7 17 -9 18 -9 5 -1 -24 -8 -23 -35 7 -13 14 -30 25 -37 25 -11
0 -11 -2 1 -10 8 -5 10 -10 4 -10 -6 0 -17 7 -24 15 -11 13 -8 15 16 16 16 1
32 1 37 0 4 0 7 3 7 8 0 4 -16 8 -35 7 -19 0 -35 -5 -35 -10 0 -5 -10 -1 -22
10 -14 12 -10 3 10 -22 36 -46 40 -64 16 -64 -10 0 -14 6 -10 15 9 23 -35 65
-79 75 -46 11 -126 13 -149 4 -9 -3 -16 -12 -16 -20 0 -13 -18 -19 -47 -15 -7
1 -13 -3 -13 -9 0 -6 5 -8 12 -4 7 4 8 3 4 -5 -9 -14 -26 -5 -26 13 0 7 15 18
33 24 30 9 30 10 6 11 -30 1 -55 -22 -64 -62 -9 -35 -28 -30 -35 9 -4 20 1 36
14 52 20 22 43 31 30 11 -4 -8 -1 -8 12 -1 11 5 43 10 73 11 30 1 57 4 59 6 3
2 9 2 14 -1 5 -4 151 -6 324 -7z m-298 -34 c19 -3 32 -1 32 5 0 6 13 7 36 2
40 -9 69 -30 42 -30 -9 0 -19 4 -23 10 -3 5 -12 7 -21 3 -13 -5 -13 -8 3 -27
10 -11 11 -15 3 -8 -17 14 -44 16 -35 2 9 -15 -11 -12 -27 3 -14 15 -67 12
-82 -4 -17 -16 -27 -10 -16 11 7 13 21 20 43 20 l32 1 -30 15 c-16 8 -21 12
-10 8 11 -3 35 -8 53 -11z m-591 -27 c0 -29 -2 -32 -14 -21 -7 8 -12 18 -11
23 2 6 -1 10 -7 11 -5 1 -10 -3 -10 -8 0 -5 -4 -13 -9 -18 -5 -4 -6 -3 -3 4 4
6 1 14 -5 16 -18 7 10 27 38 27 17 0 21 -6 21 -34z m215 -8 c-9 -9 -15 -9 -24
1 -11 11 -10 13 5 8 10 -4 17 -2 17 5 0 6 3 8 7 5 4 -4 1 -13 -5 -19z m278 8
c0 -2 -7 -9 -15 -16 -12 -10 -15 -10 -15 4 0 9 7 16 15 16 8 0 15 -2 15 -4z
m580 -36 c0 -13 -7 -20 -19 -20 -10 0 -21 9 -24 20 -4 16 0 20 19 20 17 0 24
-6 24 -20z m-471 -86 c2 -2 -35 -4 -83 -4 -48 0 -85 4 -82 9 5 8 156 4 165 -5z"/>
<path d="M2175 470 c-3 -5 -12 -7 -20 -4 -9 4 -13 -1 -12 -15 1 -21 17 -30 17
-10 0 5 4 8 9 5 5 -3 11 3 14 14 5 21 2 26 -8 10z"/>
<path d="M2450 461 c0 -5 8 -8 18 -6 9 1 28 -4 42 -12 l25 -14 -24 20 c-24 21
-61 28 -61 12z"/>
<path d="M2420 431 c0 -4 11 -6 25 -3 14 2 25 6 25 8 0 2 -11 4 -25 4 -14 0
-25 -4 -25 -9z"/>
<path d="M2423 513 c9 -2 25 -2 35 0 9 3 1 5 -18 5 -19 0 -27 -2 -17 -5z"/>
<path d="M878 473 c12 -2 22 -9 22 -14 0 -15 53 -7 58 9 3 9 -11 12 -50 11
-29 -1 -43 -4 -30 -6z"/>
<path d="M289 432 c5 -34 6 -35 9 -8 2 16 0 32 -5 37 -5 5 -7 -7 -4 -29z"/>
<path d="M445 451 c-3 -5 2 -11 10 -15 8 -3 17 -1 20 3 3 5 -2 11 -10 15 -8 3
-17 1 -20 -3z"/>
<path d="M1100 412 c0 -4 11 -8 25 -8 33 -2 33 11 0 14 -14 1 -25 -2 -25 -6z"/>
<path d="M293 350 c0 -25 2 -35 4 -22 2 12 2 32 0 45 -2 12 -4 2 -4 -23z"/>
<path d="M2722 335 c2 -25 3 -46 3 -47 0 -2 -450 -5 -1000 -8 l-1000 -5 1004
0 1005 0 2 53 c1 29 -3 52 -8 52 -6 0 -8 -20 -6 -45z"/>
</g>
</svg>
