<svg xmlns="http://www.w3.org/2000/svg" viewBox="408 227 120 120" style="isolation:isolate"><defs><clipPath id="_clipPath_gYMiJI0WRNHAsQIsztqybyZbOca6Zvw0"><path d="M0 0h1280v800H0z"/></clipPath></defs><g clip-path="url(#_clipPath_gYMiJI0WRNHAsQIsztqybyZbOca6Zvw0)"><path fill="#EBEBEB" d="M894.813 332.056l48.086 62.423L899.819 432zM947.957 323.056l48.086 62.423L952.963 423zM975.659 564.889q-9.659-.389-40.087 56-1.238 78.784 11.087 78c12.324-.784 17.158 2.139 21 0 3.841-2.139-8.178-81.111-8.044-78 .135 3.111 32.452-41.611 31.044-46-1.409-4.389-5.342-9.611-15-10z"/><path fill="#EBEBEB" stroke="#EBEBEB" stroke-linecap="square" stroke-miterlimit="3" d="M1005 572.976q-20.921 26.604-23.341 46 7.512 78.147 11.341 78c3.829-.146 26.671-1.603 25 0-1.671 1.604-14.471-78.577-12.321-79.487q2.15-.909 20.321-44.513-.079-26.603-21 0z" vector-effect="non-scaling-stroke"/><path fill="#E8E8E8" stroke="#747474" stroke-linecap="square" stroke-miterlimit="3" d="M940.081 476.005h23V544l-15 45-17-7 17-41-8-64.995z" vector-effect="non-scaling-stroke"/><ellipse cx="942.89906242" cy="418.39464984" fill="#EBEBEB" rx="65.97933064" ry="65.67663043" vector-effect="non-scaling-stroke"/><path fill="#EBEBEB" d="M938.645 512.986c-9.62-54.603 3.28-102.583 28.789-107.077s54.03 36.188 63.649 90.792c9.62 54.603-3.28 102.583-28.789 107.077s-54.029-36.189-63.649-90.792z"/><path fill="#E8E8E8" stroke="#8B8B8B" stroke-linecap="square" stroke-miterlimit="3" d="M963.25 470H992v80.635L973.25 604 952 595.699l21.25-48.622-10-77.077z" vector-effect="non-scaling-stroke"/><g style="isolation:isolate"><ellipse cx="904" cy="415.38632882" fill="#FFF" rx="14" ry="13.61367118" vector-effect="non-scaling-stroke"/><ellipse cx="949.33007681" cy="401.19316441" fill="#FFF" rx="12.66992319" ry="14.19316441" vector-effect="non-scaling-stroke"/><ellipse cx="901.9093971" cy="416.55058579" rx="2.0906029" ry="1.84406405" vector-effect="non-scaling-stroke"/><ellipse cx="949.33007681" cy="401.77265764" rx="2.0906029" ry="1.84406405" vector-effect="non-scaling-stroke"/></g><path fill="#FFF" stroke="#000" stroke-linecap="square" stroke-miterlimit="3" d="M922.62 423.649c-1.125-2 16.298-7.25 16.899-4q.601 3.25-3.899 12-11.875-6-13-8zM929 447l11.081 3 6.919-1 2-8-20 6z" vector-effect="non-scaling-stroke"/></g><defs><clipPath id="_clipPath_NGu4BnwCmEjTHcR3wiL0VWJRVoWdgh13"><path d="M0 0h1280v800H0z"/></clipPath></defs><g clip-path="url(#_clipPath_NGu4BnwCmEjTHcR3wiL0VWJRVoWdgh13)"><path fill="#171717" d="M467.5 227l8 21 3.5-2.5 11.5-13.5.5 9.5c-3.579 2.625-2.036 8.517-1 12l1.5.5 19-10-.5 1.5-9 19 12.5.5c2.133-3.081 7.074-1.849 10-1v1L507 278.5l.5 1.5 20.5 7.5-21 7 2.5 3.5 13.5 11.5-11.5.5c-2.133-3.081-7.074-1.849-10-1l-.5 1.5 10 19-1.5.5-19-10-.5 11.5c3.328 2.377 1.943 7.792 1 11l-2-1-12.5-15.5-1.5.5-6.5 20.5-1.5-.5-6.5-20.5-2.5 1.5-12.5 15.5-.5-11.5c3.328-2.377 1.943-7.792 1-11l-1.5-.5-19 10 .5-1.5 9-19-9.5-.5c-2.625 3.579-8.517 2.036-12 1l5-6 10.5-8.5-.5-1.5-20.5-6.5 21-8-.5-1.5-16.5-13.5 9.5-.5c2.876 3.835 9.289 2.113 13 1l.5-1.5-10-19 1.5.5 19 9 .5-10.5c-3.328-2.377-1.943-7.792-1-11l6 5 8.5 10.5 1.5-.5 6.5-20.5z"/><path fill="#FEFDFC" d="M461.5 255c10.349-.839 22.433.121 29.907 8.28 16.61 18.132 9.322 49.817-15.602 55.65-15.884 3.717-35.714-5.483-39.411-22.324-3.043-13.86 1.051-28.455 13.106-36.606l12-5z"/><path fill="#607D8B" fill-rule="evenodd" d="M446.5 262l-4 5 4-5zm13 2c11.443-5.125 16.42-1.497 19.5.5 3.08 1.997 4.337 8.519 5 11.5q.663 2.981-7.5 11-.111 1.389-1 14.5H461q.25-7.625-1.5-14.5c-1.167-4.583-5.889-4.611-5.5-11q1.086-10.023 5.5-12zm-24 19l.5 8.5h-1l.5-8.5zm26 20l12.5.5c.342 2.168.431 4.998-1.5 6.5l-2.5.5-.5 1.5c-2.415.295-5.384.037-6.5-2.5l-1.5-6.5zm-47 4l-1 3 3.5.5-5.5.5 3-4zm79 0l-5 6 5-6zm29 1l2 3-5.5-.5 4-1-.5-1.5zM754.74 198.615c3.391.825 7.641 1.275 9.76-1.615l9.5.5-9 19-.5 1.5 19-10 1.5.5c.943 3.208 2.328 8.623-1 11l.5 11.5 12.5-15.5 2.5-1.5 6.5 20.5 1.5.5 6.5-20.5 1.5-.5 12.5 15.5 2 1c.943-3.208 2.328-8.623-1-11l.5-11.5 19 10 1.5-.5-10-19 .5-1.5c2.926-.849 7.867-2.081 10 1l11.5-.5-13.5-11.5-2.5-3.5 21-7-20.5-7.5-.5-1.5 16.5-13.5v-1c-2.926-.849-7.867-2.081-10 1l-12.5-.5 9-19 .5-1.5-19 10-1.5-.5c-1.036-3.483-2.579-9.375 1-12l-.5-9.5-11.5 13.5-3.5 2.5-8-21-6.5 20.5-1.5.5-8.5-10.5-6-5c-.943 3.208-2.328 8.623 1 11l-.5 10.5-19-9-1.5-.5 10 19-.5 1.5c-3.711 1.113-10.124 2.835-13-1l-9.5.5 16.5 13.5.5 1.5-21 8 20.5 6.5.5 1.5-10.5 8.5-5 6 3.5.5-1.26.115zm19.859-19.115c.157 1.704.423 3.411.795 5.106 3.697 16.841 23.527 26.041 39.411 22.324 5.325-1.246 9.844-3.672 13.498-6.894 13.449-11.859 15.165-34.498 2.104-48.756-7.474-8.159-19.558-9.119-29.907-8.28l-12 5c-1.388.939-2.671 1.963-3.849 3.061-6.047 5.639-9.347 13.239-10.07 21.319L774.5 171l-.5 8.5h.599zM785.5 150l-.849 1.061L781.5 155l4-5z"/></g></svg>