<svg xmlns="http://www.w3.org/2000/svg" viewBox="747 115 120 120" style="isolation: isolate">
  <defs>
    <clipPath id="_clipPath_Zd797ZDGxxaLvm5G87o0r6GPsOPHYPdd">
      <path d="M 0 0 h 1280 v 800 H 0 z"/>
    </clipPath>
  </defs>
  <g clip-path="url(#_clipPath_Zd797ZDGxxaLvm5G87o0r6GPsOPHYPdd)">
    <path fill="#ebebeb" d="M 894.8 332.1 l 48.1 62.4 L 899.8 432 z m 53.1 -9 l 48.1 62.4 L 953 423 z m 27.7 241.8 q -9.7 -0.4 -40.1 56 q -1.2 78.8 11.1 78 c 12.3 -0.8 17.2 2.1 21 0 c 3.8 -2.1 -8.2 -81.1 -8 -78 c 0.1 3.1 32.5 -41.6 31 -46 c -1.4 -4.4 -5.3 -9.6 -15 -10 z"/>
    <path fill="#ebebeb" stroke="#ebebeb" stroke-linecap="square" stroke-miterlimit="3" d="M 1005 573 q -20.9 26.6 -23.3 46 q 7.5 78.1 11.3 78 c 3.8 -0.1 26.7 -1.6 25 0 c -1.7 1.6 -14.5 -78.6 -12.3 -79.5 q 2.1 -0.9 20.3 -44.5 q -0.1 -26.6 -21 0 z" vector-effect="non-scaling-stroke"/>
    <path fill="#e8e8e8" stroke="#747474" stroke-linecap="square" stroke-miterlimit="3" d="M 940.1 476 h 23 V 544 l -15 45 l -17 -7 l 17 -41 l -8 -65 z" vector-effect="non-scaling-stroke"/>
    <ellipse cx="942.9" cy="418.4" fill="#ebebeb" rx="66" ry="65.7" vector-effect="non-scaling-stroke"/>
    <path fill="#ebebeb" d="M 938.6 513 c -9.6 -54.6 3.3 -102.6 28.8 -107.1 s 54 36.2 63.6 90.8 c 9.6 54.6 -3.3 102.6 -28.8 107.1 s -54 -36.2 -63.6 -90.8 z"/>
    <path fill="#e8e8e8" stroke="#8b8b8b" stroke-linecap="square" stroke-miterlimit="3" d="M 963.3 470 H 992 v 80.6 L 973.3 604 L 952 595.7 l 21.3 -48.6 l -10 -77.1 z" vector-effect="non-scaling-stroke"/>
    <g style="isolation: isolate">
      <ellipse cx="904" cy="415.4" fill="#ffffff" rx="14" ry="13.6" vector-effect="non-scaling-stroke"/>
      <ellipse cx="949.3" cy="401.2" fill="#ffffff" rx="12.7" ry="14.2" vector-effect="non-scaling-stroke"/>
      <ellipse cx="901.9" cy="416.6" rx="2.1" ry="1.8" vector-effect="non-scaling-stroke"/>
      <ellipse cx="949.3" cy="401.8" rx="2.1" ry="1.8" vector-effect="non-scaling-stroke"/>
    </g>
    <path fill="#ffffff" stroke="#000000" stroke-linecap="square" stroke-miterlimit="3" d="M 922.6 423.6 c -1.1 -2 16.3 -7.3 16.9 -4 q 0.6 3.3 -3.9 12 q -11.9 -6 -13 -8 z M 929 447 l 11.1 3 l 6.9 -1 l 2 -8 l -20 6 z" vector-effect="non-scaling-stroke"/>
  </g>
  <defs>
    <clipPath id="_clipPath_nAslU1eTkvYf3b7UU1YAyahTd7pKPauM">
      <path d="M 0 0 h 1280 v 800 H 0 z"/>
    </clipPath>
  </defs>
  <g clip-path="url(#_clipPath_nAslU1eTkvYf3b7UU1YAyahTd7pKPauM)">
    <path fill="#fefdfc" d="M 401.5 216 l 137.5 0.5 l -0.5 136.5 l -137.5 -0.5 l 0.5 -136.5 z"/>
    <path fill="#171717" d="M 468.5 224 l 8 21 l 3.5 -2.5 l 11.5 -13.5 l 0.5 9.5 c -3.6 2.6 -2 8.5 -1 12 l 1.5 0.5 l 19 -10 l -0.5 1.5 l -9 19 l 12.5 0.5 c 2.1 -3.1 7.1 -1.8 10 -1 v 1 L 508 275.5 l 0.5 1.5 l 20.5 7.5 l -21 7 l 2.5 3.5 l 13.5 11.5 l -11.5 0.5 c -2.1 -3.1 -7.1 -1.8 -10 -1 l -0.5 1.5 l 10 19 l -1.5 0.5 l -19 -10 l -0.5 11.5 c 3.3 2.4 1.9 7.8 1 11 l -2 -1 l -12.5 -15.5 l -1.5 0.5 l -6.5 20.5 l -1.5 -0.5 l -6.5 -20.5 l -2.5 1.5 l -12.5 15.5 l -0.5 -11.5 c 3.3 -2.4 1.9 -7.8 1 -11 l -1.5 -0.5 l -19 10 l 0.5 -1.5 l 9 -19 l -9.5 -0.5 c -2.6 3.6 -8.5 2 -12 1 l 5 -6 l 10.5 -8.5 l -0.5 -1.5 l -20.5 -6.5 l 21 -8 l -0.5 -1.5 l -16.5 -13.5 l 9.5 -0.5 c 2.9 3.8 9.3 2.1 13 1 l 0.5 -1.5 l -10 -19 l 1.5 0.5 l 19 9 l 0.5 -10.5 c -3.3 -2.4 -1.9 -7.8 -1 -11 l 6 5 l 8.5 10.5 l 1.5 -0.5 l 6.5 -20.5 z"/>
    <path fill="#fefdfc" d="M 462.5 252 c 10.3 -0.8 22.4 0.1 29.9 8.3 c 16.6 18.1 9.3 49.8 -15.6 55.6 c -15.9 3.7 -35.7 -5.5 -39.4 -22.3 c -3 -13.9 1.1 -28.5 13.1 -36.6 l 12 -5 z"/>
    <path fill="#607d8b" fill-rule="evenodd" d="M 447.5 259 l -4 5 l 4 -5 z m 13 2 c 11.4 -5.1 16.4 -1.5 19.5 0.5 c 3.1 2 4.3 8.5 5 11.5 q 0.7 3 -7.5 11 q -0.1 1.4 -1 14.5 H 462 q 0.3 -7.6 -1.5 -14.5 c -1.2 -4.6 -5.9 -4.6 -5.5 -11 q 1.1 -10 5.5 -12 z m -24 19 l 0.5 8.5 h -1 l 0.5 -8.5 z m 26 20 l 12.5 0.5 c 0.3 2.2 0.4 5 -1.5 6.5 l -2.5 0.5 l -0.5 1.5 c -2.4 0.3 -5.4 0 -6.5 -2.5 l -1.5 -6.5 z m -47 4 l -1 3 l 3.5 0.5 l -5.5 0.5 l 3 -4 z m 79 0 l -5 6 l 5 -6 z m 29 1 l 2 3 l -5.5 -0.5 l 4 -1 l -0.5 -1.5 z m 232.2 -109.4 c 3.4 0.8 7.6 1.3 9.8 -1.6 l 9.5 0.5 l -9 19 l -0.5 1.5 l 19 -10 l 1.5 0.5 c 0.9 3.2 2.3 8.6 -1 11 l 0.5 11.5 l 12.5 -15.5 l 2.5 -1.5 l 6.5 20.5 l 1.5 0.5 l 6.5 -20.5 l 1.5 -0.5 l 12.5 15.5 l 2 1 c 0.9 -3.2 2.3 -8.6 -1 -11 l 0.5 -11.5 l 19 10 l 1.5 -0.5 l -10 -19 l 0.5 -1.5 c 2.9 -0.8 7.9 -2.1 10 1 l 11.5 -0.5 l -13.5 -11.5 l -2.5 -3.5 l 21 -7 l -20.5 -7.5 l -0.5 -1.5 l 16.5 -13.5 v -1 c -2.9 -0.8 -7.9 -2.1 -10 1 l -12.5 -0.5 l 9 -19 l 0.5 -1.5 l -19 10 l -1.5 -0.5 c -1 -3.5 -2.6 -9.4 1 -12 l -0.5 -9.5 l -11.5 13.5 l -3.5 2.5 l -8 -21 l -6.5 20.5 l -1.5 0.5 l -8.5 -10.5 l -6 -5 c -0.9 3.2 -2.3 8.6 1 11 l -0.5 10.5 l -19 -9 l -1.5 -0.5 l 10 19 l -0.5 1.5 c -3.7 1.1 -10.1 2.8 -13 -1 l -9.5 0.5 l 16.5 13.5 l 0.5 1.5 l -21 8 l 20.5 6.5 l 0.5 1.5 l -10.5 8.5 l -5 6 l 3.5 0.5 l -1.3 0.1 z m 19.9 -19.1 c 0.2 1.7 0.4 3.4 0.8 5.1 c 3.7 16.8 23.5 26 39.4 22.3 c 5.3 -1.2 9.8 -3.7 13.5 -6.9 c 13.4 -11.9 15.2 -34.5 2.1 -48.8 c -7.5 -8.2 -19.6 -9.1 -29.9 -8.3 l -12 5 C 788.1 145.9 786.9 146.9 785.7 148.1 c -6 5.6 -9.3 13.2 -10.1 21.3 L 775.5 168 l -0.5 8.5 h 0.6 z M 786.5 147 l -0.8 1.1 L 782.5 152 l 4 -5 z"/>
  </g>
    <ellipse cx="188" cy="72" fill="rgb(255, 255, 255)" rx="0" ry="0"/>
</svg>
